<svg xmlns="http://www.w3.org/2000/svg" width="452" height="181" version="1.2"><path fill-rule="evenodd" d="M31.3 179h-3.6c-.3 0-.4-.1-.4-.2l-.2-4.9-.3-.2h-6.9l-.4.2-2.9 5-.4.2h-3.7c-.1 0-.2-.1-.1-.2l12.1-20.5.5-.2h5.2c.2 0 .3.1.3.2l1 20.5c0 .2-.1.3-.2.1zm-4.6-17c0-.1 0-.1-.2 0l-4.9 8.6c-.1.1 0 .2.1.2h5l.2-.2zm30.6 6.6c-2.5 8.8-3.9 10.8-11.4 10.8-7.3 0-7.6-2.2-5.3-10.8l1.1-3.5 1.9-6.7.3-.3h3.7c.2 0 .2.2.2.3l-.7 2.9-2.1 7.3c-1.8 6.5-2 8 1.8 8 3.9 0 4.5-1.1 6.4-8l1.1-3.5 1.9-6.7.3-.3h3.6c.2 0 .2.2.2.3l-.8 2.9zm25.4-7.5H77l-.3.2-4.8 17.5-.4.3h-3.7c-.2 0-.2-.2-.2-.3l4.8-17.5-.2-.2h-5.6c-.3 0-.3-.2-.3-.3l.7-2.4c0-.2.2-.3.4-.3h16.2c.2 0 .2.1.2.3l-.7 2.4c0 .1-.2.4-.4.3zm10 18.3c-7.2 0-7.6-2.3-5.2-10.8 2.5-8.8 4.1-10.8 11.1-10.8 7.4 0 7.7 2.1 5.3 10.8-2.3 8.9-3.9 10.8-11.2 10.8zm5.2-18.9c-3.9 0-4.4 1.5-6.2 8.1-1.7 6.5-1.9 8 1.8 8s4.4-1.1 6.3-8c1.9-6.8 1.9-8.1-1.9-8.1zm32.4 18.6h-3.5c-.3 0-.3-.2-.3-.3l3.9-13.9c0-.1 0-.1-.1 0l-7.6 10.3-.4.3h-2.8c-.2 0-.4-.2-.4-.3l-1.7-10.2c0-.1-.1-.1-.1 0l-3.8 13.9c0 .2-.2.3-.3.3h-3.6c-.3 0-.3-.1-.3-.3l5.7-20.4.3-.3h4.4l.3.3 2.2 11.6c0 .1.1.1.2 0l8.5-11.6.5-.3h4.5c.2 0 .2.2.2.3l-5.6 20.4c0 .2-.1.3-.2.2zm16.3.3c-7.2 0-7.6-2.3-5.2-10.8 2.5-8.8 4.1-10.8 11.1-10.8 7.4 0 7.7 2.1 5.3 10.8-2.3 8.9-3.9 10.8-11.2 10.8zm5.2-18.9c-3.9 0-4.4 1.5-6.2 8.1-1.7 6.5-1.9 8 1.8 8s4.4-1.1 6.3-8c1.9-6.8 1.9-8-1.9-8.1zm30.8.6H177l-.4.2-4.8 17.5c0 .1-.2.3-.4.3h-3.7c-.2 0-.2-.2-.2-.3l4.8-17.5-.2-.2h-5.6c-.2 0-.2-.2-.2-.3l.6-2.4c0-.2.3-.3.4-.3h16.1c.2 0 .2.1.2.3l-.7 2.4c0 .1-.1.4-.3.3zm6.3 18.1h-3.7c-.2 0-.2-.1-.2-.3l5.6-20.4.3-.3h3.7c.3 0 .3.2.3.3l-5.7 20.4q0 .3-.3.3zm19.5-.4-.5.3h-5.2c-.2 0-.3-.2-.3-.3l-.9-20.4c0-.2.1-.3.2-.3h3.7c.3 0 .4.1.4.3l.4 16.8c0 .1 0 .1.1 0l9.9-16.8c.1-.2.4-.3.5-.3h3.6c.1 0 .2.1.1.3zm32-17.7-.4.2h-9l-.3.2-1.5 5.3.2.2h8.1c.3 0 .3.2.3.3l-.7 2.4c0 .2-.2.3-.3.3h-8.3l-.3.2-1.6 5.6c0 .1.1.2.3.2h9c.2 0 .2.2.2.3l-.7 2.5-.3.2H222c-.2 0-.2-.1-.2-.2l5.6-20.5c0-.1.2-.3.4-.3h13.1c.2 0 .2.2.2.3z"/><path fill="#4a4a49" d="m137.3 6.8.1-.9a4 4 0 0 0-4-3.9H70.3c-23 0-46.7 18.7-52.9 41.7L3.5 95.8c-6.2 23.1 7.5 41.8 30.5 41.8h74l8.3-31.3h-74c-5.7 0-9.2-4.6-7.6-10.5l13.9-52.1a14.6 14.6 0 0 1 13.2-10.4h65.3c1.8 0 3.4-1.3 3.9-2.9zm137.1 26.4 8.4-31.3h-82.7a58.3 58.3 0 0 0-52.9 41.8c-6.2 23 7.5 41.7 30.5 41.7h44.6c5.8 0 9.3 4.6 7.7 10.5a14.6 14.6 0 0 1-13.2 10.4h-89.3l-8.3 31.3h89.3a58.4 58.4 0 0 0 52.9-41.7c6.2-23.1-7.5-41.8-30.5-41.8h-44.7c-5.7 0-9.2-4.6-7.6-10.4a14.5 14.5 0 0 1 13.1-10.5zm110-31.3h-90.5l-8.3 31.3h80.5c9 0 10.5 4.5-.3 11.7-12.4 8.2-46.5 31.5-46.5 31.5l33.6 59a4 4 0 0 0 3.1 2h27a4 4 0 0 0 4-3.9c0-.8-.3-1.6-.7-2.3l-27.4-48.9 28.3-20.2c42.5-30 32.4-60.2-2.8-60.2z"/><path fill="#c7017f" d="M284.5 158.2h-29.7c-1.6 0-2.9 1-3.3 2.4l-5 18.3c0 .1 0 .2.3.2h29.7c1.5 0 2.9-1.1 3.2-2.6l5-18.2-.2-.1z"/><path fill-rule="evenodd" d="M439.6 22.9c-5.8 0-10.5-4.7-10.5-10.4 0-5.8 4.7-10.5 10.4-10.5 5.8 0 10.5 4.7 10.5 10.5 0 5.7-4.7 10.4-10.5 10.4zm8.6-10.5a8.7 8.7 0 0 0-17.4 0 8.7 8.7 0 0 0 17.4 0zm-4.3-1.4a4 4 0 0 1-2.5 2.6l.5 4.6h-1.7l-.5-4.4H437l-1.1 4.4c-.6-.3-1.1-.8-1.6-1.3L437 6.7h4.3c1.5 0 2.5.4 2.9.9q.6.9.3 2.1zm-1.4-2.3c-.3-.4-1-.4-1.6-.4h-2.3l-1.2 4.1h2.3c1.2 0 2.1-.2 2.5-1.4l.3-1.4v-.9z"/></svg>